<?xml version="1.0" standalone="no"?>
<!DOCTYPE svg PUBLIC "-//W3C//DTD SVG 20010904//EN"
 "http://www.w3.org/TR/2001/REC-SVG-20010904/DTD/svg10.dtd">
<svg version="1.0" xmlns="http://www.w3.org/2000/svg"
 width="90.000000pt" height="90.000000pt" viewBox="0 0 90.000000 90.000000"
 preserveAspectRatio="xMidYMid meet">

<g transform="translate(0.000000,90.000000) scale(0.100000,-0.100000)"
fill="#F7C301" stroke="none">
<path d="M366 707 l-56 -104 -102 -12 c-111 -14 -148 -24 -148 -42 0 -30 48
-82 113 -125 40 -26 74 -49 76 -50 1 -2 -11 -58 -28 -127 -17 -68 -31 -129
-31 -136 0 -28 36 -19 144 35 l115 59 103 -53 c106 -54 132 -61 141 -39 6 16
-17 163 -33 212 -10 29 -9 38 6 57 15 21 85 82 154 137 53 42 -10 70 -190 86
l-76 7 -49 97 c-29 55 -57 97 -67 99 -12 2 -32 -25 -72 -101z"/>
</g>
</svg>
